# xmcd
#
# Track frame offsets: 
#        300
#        13182
#        25516
#        45750
#        58862
#        69830
#        84136
#        103497
#        113521
#        132331
#        144905
#        154912
#
# Disc length: 2231 seconds
#
# Revision: 3
# Processed by: cddbd v1.5.2PL0 Copyright (c) Steve Scherf et al.
# Submitted via: ExactAudioCopyFreeDBPlugin 1.0
#
DISCID=9008b30c
DTITLE=Bluegrass Band - O Santa Where Art Thou (A Bluegrass Christmas)
DYEAR=2002
DGENRE=Christmas
TTITLE0=O Santa Where Art Thou
TTITLE1=Jingle Bells
TTITLE2=12 Days of Christmas
TTITLE3=Rudolph Drank the Moonshine
TTITLE4=Jolly Ol Saint Nicholas
TTITLE5=Deck the Halls
TTITLE6=Angels We Have Heard on High
TTITLE7=First Noel, The
TTITLE8=Silent Night
TTITLE9=Oh Come All Ye Faithful
TTITLE10=Away in a Manger
TTITLE11=Christmas Spirits
EXTD=A Bluegrass Christmas
EXTT0=
EXTT1=
EXTT2=
EXTT3=
EXTT4=
EXTT5=
EXTT6=
EXTT7=
EXTT8=
EXTT9=
EXTT10=
EXTT11=
PLAYORDER=
